<?xml version="1.0" encoding="utf-8"?>
<!-- Generator: Adobe Illustrator 27.5.0, SVG Export Plug-In . SVG Version: 6.00 Build 0)  -->
<svg version="1.1" xmlns="http://www.w3.org/2000/svg" xmlns:xlink="http://www.w3.org/1999/xlink" x="0px" y="0px"
	 viewBox="0 0 4800 3400" style="enable-background:new 0 0 4800 3400;" xml:space="preserve">
<g id="BACKGROUND">
	<rect style="fill:#F7F8F8;" width="4800" height="3400"/>
</g>
<g id="OBJECTS">
	<g>
		<polygon style="fill:#E7E7E7;" points="0,0.104 70.827,0.104 70.767,0 0,0 		"/>
		<polygon style="fill:#FDFEFE;" points="70.883,0 70.827,0.104 370.155,0.104 370.099,0 		"/>
		<polygon style="fill:#FFFFFF;" points="370.215,0 370.155,0.104 669.487,0.104 669.427,0 		"/>
		<polygon style="fill:#F7F7F7;" points="669.547,0 669.487,0.104 968.819,0.104 968.76,0 		"/>
		<polygon style="fill:#E7E7E7;" points="968.88,0 968.819,0.104 1268.151,0.104 1268.091,0 		"/>
		<polygon style="fill:#E7E7E7;" points="1268.211,0 1268.151,0.104 1567.483,0.104 1567.423,0 		"/>
		<polygon style="fill:#FFFFFF;" points="1567.543,0 1567.483,0.104 1866.815,0.104 1866.755,0 		"/>
		<polygon style="fill:#F7F7F7;" points="1866.875,0 1866.815,0.104 2166.147,0.104 2166.087,0 		"/>
		<polygon style="fill:#FDFEFE;" points="2166.207,0 2166.147,0.104 2465.48,0.104 2465.419,0 		"/>
		<polygon style="fill:#F7F8F8;" points="2465.539,0 2465.48,0.104 2764.811,0.104 2764.751,0 		"/>
		<polygon style="fill:#FFFFFF;" points="2764.871,0 2764.811,0.104 3064.139,0.104 3064.083,0 		"/>
		<polygon style="fill:#FFFFFF;" points="3064.2,0 3064.139,0.104 3363.471,0.104 3363.411,0 		"/>
		<polygon style="fill:#F7F7F7;" points="3363.531,0 3363.471,0.104 3662.803,0.104 3662.743,0 		"/>
		<polygon style="fill:#EAEAEA;" points="3662.863,0 3662.803,0.104 3962.135,0.104 3962.075,0 		"/>
		<polygon style="fill:#FDFEFE;" points="3962.195,0 3962.135,0.104 4261.467,0.104 4261.407,0 		"/>
		<polygon style="fill:#E7E7E7;" points="4261.527,0 4261.467,0.104 4560.8,0.104 4560.739,0 		"/>
		<polygon style="fill:#F7F7F7;" points="4800,0 4560.859,0 4560.8,0.104 4800,0.104 		"/>
		<polygon style="fill:#F7F8F8;" points="0,124.352 0,262.664 220.491,262.664 70.827,0.104 70.827,0.096 		"/>
		<polygon style="fill:#F7F8F8;" points="0,124.352 70.819,0.104 0,0.104 		"/>
		<path style="fill:#FDFEFE;" d="M370.155,0.096L220.491,262.664h299.332L370.155,0.104V0.096z"/>
		<path style="fill:#E7E7E7;" d="M370.155,0.096L220.491,262.664L70.827,0.104h299.328V0.096z"/>
		<path style="fill:#EAEAEA;" d="M669.487,0.096L519.823,262.664h299.332L669.487,0.104V0.096z"/>
		<path style="fill:#FFFFFF;" d="M669.487,0.096L519.823,262.664L370.155,0.104h299.332V0.096z"/>
		<path style="fill:#F7F8F8;" d="M968.819,0.096L819.155,262.664h299.332L968.819,0.104V0.096z"/>
		<path style="fill:#EAEAEA;" d="M968.819,0.096L819.155,262.664L669.487,0.104h299.332V0.096z"/>
		<path style="fill:#FFFFFF;" d="M1268.151,0.096l-149.664,262.568h299.332L1268.151,0.104V0.096z"/>
		<path style="fill:#FDFEFE;" d="M1268.151,0.096l-149.664,262.568L968.819,0.104h299.332V0.096z"/>
		<path style="fill:#F7F8F8;" d="M1567.483,0.096l-149.664,262.568h299.328L1567.483,0.104V0.096z"/>
		<path style="fill:#EAEAEA;" d="M1567.483,0.096l-149.664,262.568L1268.151,0.104h299.332V0.096z"/>
		<path style="fill:#FDFEFE;" d="M1866.815,0.096l-149.668,262.568h299.333L1866.815,0.104V0.096z"/>
		<path style="fill:#E7E7E7;" d="M1866.815,0.096l-149.668,262.568L1567.483,0.104h299.332V0.096z"/>
		<path style="fill:#FDFEFE;" d="M2166.147,0.096L2016.48,262.664h299.331L2166.147,0.104V0.096z"/>
		<path style="fill:#EAEAEA;" d="M2166.147,0.096L2016.48,262.664L1866.815,0.104h299.332V0.096z"/>
		<path style="fill:#EAEAEA;" d="M2465.48,0.096l-149.669,262.568h299.332L2465.48,0.104V0.096z"/>
		<path style="fill:#E7E7E7;" d="M2465.48,0.096l-149.669,262.568L2166.147,0.104h299.333V0.096z"/>
		<path style="fill:#FDFEFE;" d="M2764.811,0.096l-149.668,262.568h299.332L2764.811,0.104V0.096z"/>
		<path style="fill:#F7F8F8;" d="M2764.811,0.096l-149.668,262.568L2465.48,0.104h299.331V0.096z"/>
		<path style="fill:#F7F8F8;" d="M3064.139,0.096l-149.664,262.568h299.332L3064.139,0.104V0.096z"/>
		<path style="fill:#F7F7F7;" d="M3064.139,0.096l-149.664,262.568L2764.811,0.104h299.328V0.096z"/>
		<path style="fill:#F7F7F7;" d="M3363.471,0.096l-149.664,262.568h299.332L3363.471,0.104V0.096z"/>
		<path style="fill:#FFFFFF;" d="M3363.471,0.096l-149.664,262.568L3064.139,0.104h299.332V0.096z"/>
		<path style="fill:#F7F8F8;" d="M3662.803,0.096l-149.664,262.568h299.332L3662.803,0.104V0.096z"/>
		<path style="fill:#EAEAEA;" d="M3662.803,0.096l-149.664,262.568L3363.471,0.104h299.332V0.096z"/>
		<path style="fill:#EAEAEA;" d="M3962.135,0.096l-149.664,262.568h299.332L3962.135,0.104V0.096z"/>
		<path style="fill:#FDFEFE;" d="M3962.135,0.096l-149.664,262.568L3662.803,0.104h299.332V0.096z"/>
		<path style="fill:#F7F7F7;" d="M4261.467,0.096l-149.664,262.568h299.328L4261.467,0.104V0.096z"/>
		<path style="fill:#FDFEFE;" d="M4261.467,0.096l-149.664,262.568L3962.135,0.104h299.332V0.096z"/>
		<path style="fill:#FDFEFE;" d="M4560.8,0.096l-149.668,262.568h299.332L4560.8,0.104V0.096z"/>
		<path style="fill:#EAEAEA;" d="M4560.8,0.096l-149.668,262.568L4261.467,0.104H4560.8V0.096z"/>
		<polygon style="fill:#FDFEFE;" points="4800,105.588 4710.463,262.664 4800,262.664 		"/>
		<polygon style="fill:#F7F8F8;" points="4800,0.104 4560.8,0.104 4710.463,262.664 4800,105.588 		"/>
		<polygon style="fill:#FDFEFE;" points="0,400.972 0,525.22 70.827,525.22 		"/>
		<path style="fill:#F7F8F8;" d="M220.491,262.664L70.827,525.22h299.328L220.491,262.664z"/>
		<polygon style="fill:#FFFFFF;" points="0,262.664 0,400.972 70.827,525.22 220.491,262.664 		"/>
		<path style="fill:#F7F8F8;" d="M519.823,262.664L370.155,525.22h299.332L519.823,262.664z"/>
		<path style="fill:#FDFEFE;" d="M519.823,262.664L370.155,525.22L220.491,262.664H519.823z"/>
		<path style="fill:#F7F7F7;" d="M819.155,262.664L669.487,525.22h299.332L819.155,262.664z"/>
		<path style="fill:#E7E7E7;" d="M819.155,262.664L669.487,525.22L519.823,262.664H819.155z"/>
		<path style="fill:#F7F8F8;" d="M1118.487,262.664L968.819,525.22h299.332L1118.487,262.664z"/>
		<path style="fill:#EAEAEA;" d="M1118.487,262.664L968.819,525.22L819.155,262.664H1118.487z"/>
		<path style="fill:#F7F8F8;" d="M1417.819,262.664L1268.151,525.22h299.332L1417.819,262.664z"/>
		<path style="fill:#F7F8F8;" d="M1417.819,262.664L1268.151,525.22l-149.664-262.556H1417.819z"/>
		<path style="fill:#FDFEFE;" d="M1717.147,262.664L1567.483,525.22h299.332L1717.147,262.664z"/>
		<path style="fill:#F7F8F8;" d="M1717.147,262.664L1567.483,525.22l-149.664-262.556H1717.147z"/>
		<path style="fill:#E7E7E7;" d="M2016.48,262.664L1866.815,525.22h299.332L2016.48,262.664z"/>
		<path style="fill:#FFFFFF;" d="M2016.48,262.664L1866.815,525.22l-149.668-262.556H2016.48z"/>
		<path style="fill:#F7F8F8;" d="M2315.811,262.664L2166.147,525.22h299.333L2315.811,262.664z"/>
		<path style="fill:#F7F7F7;" d="M2315.811,262.664L2166.147,525.22L2016.48,262.664H2315.811z"/>
		<path style="fill:#E7E7E7;" d="M2615.143,262.664L2465.48,525.22h299.331L2615.143,262.664z"/>
		<path style="fill:#F7F7F7;" d="M2615.143,262.664L2465.48,525.22l-149.669-262.556H2615.143z"/>
		<path style="fill:#FDFEFE;" d="M2914.475,262.664L2764.811,525.22h299.328L2914.475,262.664z"/>
		<path style="fill:#F7F8F8;" d="M2914.475,262.664L2764.811,525.22l-149.668-262.556H2914.475z"/>
		<path style="fill:#EAEAEA;" d="M3213.807,262.664L3064.139,525.22h299.332L3213.807,262.664z"/>
		<path style="fill:#FFFFFF;" d="M3213.807,262.664L3064.139,525.22l-149.664-262.556H3213.807z"/>
		<path style="fill:#F7F8F8;" d="M3513.139,262.664L3363.471,525.22h299.332L3513.139,262.664z"/>
		<path style="fill:#FFFFFF;" d="M3513.139,262.664L3363.471,525.22l-149.664-262.556H3513.139z"/>
		<path style="fill:#F7F7F7;" d="M3812.471,262.664L3662.803,525.22h299.332L3812.471,262.664z"/>
		<path style="fill:#FFFFFF;" d="M3812.471,262.664L3662.803,525.22l-149.664-262.556H3812.471z"/>
		<path style="fill:#F7F7F7;" d="M4111.803,262.664L3962.135,525.22h299.332L4111.803,262.664z"/>
		<path style="fill:#F7F7F7;" d="M4111.803,262.664L3962.135,525.22l-149.664-262.556H4111.803z"/>
		<path style="fill:#EAEAEA;" d="M4411.131,262.664L4261.467,525.22H4560.8L4411.131,262.664z"/>
		<path style="fill:#EAEAEA;" d="M4411.131,262.664L4261.467,525.22l-149.664-262.556H4411.131z"/>
		<polygon style="fill:#E7E7E7;" points="4800,419.732 4710.463,262.664 4560.8,525.22 4800,525.22 		"/>
		<path style="fill:#EAEAEA;" d="M4710.463,262.664L4560.8,525.22l-149.668-262.556H4710.463z"/>
		<polygon style="fill:#FFFFFF;" points="4800,262.664 4710.463,262.664 4800,419.732 		"/>
		<polygon style="fill:#EAEAEA;" points="0,787.804 220.491,787.804 70.827,525.22 70.827,525.228 0,649.484 		"/>
		<polygon style="fill:#E7E7E7;" points="0,525.22 0,649.484 70.827,525.228 70.827,525.22 		"/>
		<path style="fill:#F7F7F7;" d="M370.155,525.228L220.491,787.804h299.332L370.155,525.22V525.228z"/>
		<path style="fill:#E7E7E7;" d="M370.155,525.228L220.491,787.804L70.827,525.22h299.328V525.228z"/>
		<path style="fill:#F7F8F8;" d="M669.487,525.228L519.823,787.804h299.332L669.487,525.22V525.228z"/>
		<path style="fill:#FFFFFF;" d="M669.487,525.228L519.823,787.804L370.155,525.22h299.332V525.228z"/>
		<path style="fill:#F7F7F7;" d="M968.819,525.228L819.155,787.804h299.332L968.819,525.22V525.228z"/>
		<path style="fill:#EAEAEA;" d="M968.819,525.228L819.155,787.804L669.487,525.22h299.332V525.228z"/>
		<path style="fill:#EAEAEA;" d="M1268.151,525.228l-149.664,262.576h299.332L1268.151,525.22V525.228z"/>
		<path style="fill:#EAEAEA;" d="M1268.151,525.228l-149.664,262.576L968.819,525.22h299.332V525.228z"/>
		<path style="fill:#EAEAEA;" d="M1567.483,525.228l-149.664,262.576h299.328L1567.483,525.22V525.228z"/>
		<path style="fill:#FFFFFF;" d="M1567.483,525.228l-149.664,262.576L1268.151,525.22h299.332V525.228z"/>
		<path style="fill:#F7F8F8;" d="M1866.815,525.228l-149.668,262.576h299.333L1866.815,525.22V525.228z"/>
		<path style="fill:#FDFEFE;" d="M1866.815,525.228l-149.668,262.576L1567.483,525.22h299.332V525.228z"/>
		<path style="fill:#EAEAEA;" d="M2166.147,525.228L2016.48,787.804h299.331L2166.147,525.22V525.228z"/>
		<path style="fill:#EAEAEA;" d="M2166.147,525.228L2016.48,787.804L1866.815,525.22h299.332V525.228z"/>
		<path style="fill:#FFFFFF;" d="M2465.48,525.228l-149.669,262.576h299.332L2465.48,525.22V525.228z"/>
		<path style="fill:#FFFFFF;" d="M2465.48,525.228l-149.669,262.576L2166.147,525.22h299.333V525.228z"/>
		<path style="fill:#F7F7F7;" d="M2764.811,525.228l-149.668,262.576h299.332L2764.811,525.22V525.228z"/>
		<path style="fill:#E7E7E7;" d="M2764.811,525.228l-149.668,262.576L2465.48,525.22h299.331V525.228z"/>
		<path style="fill:#FFFFFF;" d="M3064.139,525.228l-149.664,262.576h299.332L3064.139,525.22V525.228z"/>
		<path style="fill:#F7F7F7;" d="M3064.139,525.228l-149.664,262.576L2764.811,525.22h299.328V525.228z"/>
		<path style="fill:#F7F7F7;" d="M3363.471,525.228l-149.664,262.576h299.332L3363.471,525.22V525.228z"/>
		<path style="fill:#E7E7E7;" d="M3363.471,525.228l-149.664,262.576L3064.139,525.22h299.332V525.228z"/>
		<path style="fill:#FDFEFE;" d="M3662.803,525.228l-149.664,262.576h299.332L3662.803,525.22V525.228z"/>
		<path style="fill:#EAEAEA;" d="M3662.803,525.228l-149.664,262.576L3363.471,525.22h299.332V525.228z"/>
		<path style="fill:#E7E7E7;" d="M3962.135,525.228l-149.664,262.576h299.332L3962.135,525.22V525.228z"/>
		<path style="fill:#F7F7F7;" d="M3962.135,525.228l-149.664,262.576L3662.803,525.22h299.332V525.228z"/>
		<path style="fill:#FDFEFE;" d="M4261.467,525.228l-149.664,262.576h299.328L4261.467,525.22V525.228z"/>
		<path style="fill:#FDFEFE;" d="M4261.467,525.228l-149.664,262.576L3962.135,525.22h299.332V525.228z"/>
		<path style="fill:#FFFFFF;" d="M4560.8,525.228l-149.668,262.576h299.332L4560.8,525.22V525.228z"/>
		<path style="fill:#EAEAEA;" d="M4560.8,525.228l-149.668,262.576L4261.467,525.22H4560.8V525.228z"/>
		<polygon style="fill:#F7F7F7;" points="4800,630.724 4710.463,787.804 4800,787.804 		"/>
		<polygon style="fill:#EAEAEA;" points="4800,525.22 4560.8,525.22 4710.463,787.804 4800,630.724 		"/>
		<polygon style="fill:#F7F7F7;" points="0,926.112 0,1050.36 70.827,1050.36 		"/>
		<path style="fill:#FDFEFE;" d="M220.491,787.792L70.827,1050.36h299.328L220.491,787.804V787.792z"/>
		<polygon style="fill:#F7F7F7;" points="0,926.112 70.827,1050.36 220.487,787.804 0,787.804 		"/>
		<path style="fill:#E7E7E7;" d="M519.823,787.792L370.155,1050.36h299.332L519.823,787.804V787.792z"/>
		<path style="fill:#FDFEFE;" d="M519.823,787.792L370.155,1050.36L220.491,787.804h299.332V787.792z"/>
		<path style="fill:#F7F8F8;" d="M819.155,787.792L669.487,1050.36h299.332L819.155,787.804V787.792z"/>
		<path style="fill:#F7F7F7;" d="M819.155,787.792L669.487,1050.36L519.823,787.804h299.332V787.792z"/>
		<path style="fill:#FDFEFE;" d="M1118.487,787.792L968.819,1050.36h299.332l-149.664-262.556V787.792z"/>
		<path style="fill:#E7E7E7;" d="M1118.487,787.792L968.819,1050.36L819.155,787.804h299.332V787.792z"/>
		<path style="fill:#FFFFFF;" d="M1417.819,787.792l-149.668,262.568h299.332l-149.664-262.556V787.792z"/>
		<path style="fill:#F7F7F7;" d="M1417.819,787.792l-149.668,262.568l-149.664-262.556h299.332V787.792z"/>
		<path style="fill:#EAEAEA;" d="M1717.147,787.792l-149.664,262.568h299.332l-149.668-262.556V787.792z"/>
		<path style="fill:#E7E7E7;" d="M1717.147,787.792l-149.664,262.568l-149.664-262.556h299.328V787.792z"/>
		<path style="fill:#FDFEFE;" d="M2016.48,787.792l-149.665,262.568h299.332L2016.48,787.804V787.792z"/>
		<path style="fill:#EAEAEA;" d="M2016.48,787.792l-149.665,262.568l-149.668-262.556h299.333V787.792z"/>
		<path style="fill:#FDFEFE;" d="M2315.811,787.792l-149.664,262.568h299.333l-149.669-262.556V787.792z"/>
		<path style="fill:#EAEAEA;" d="M2315.811,787.792l-149.664,262.568L2016.48,787.804h299.331V787.792z"/>
		<path style="fill:#E7E7E7;" d="M2615.143,787.792L2465.48,1050.36h299.331l-149.668-262.556V787.792z"/>
		<path style="fill:#EAEAEA;" d="M2615.143,787.792L2465.48,1050.36l-149.669-262.556h299.332V787.792z"/>
		<path style="fill:#EAEAEA;" d="M2914.475,787.792l-149.664,262.568h299.328l-149.664-262.556V787.792z"/>
		<path style="fill:#F7F7F7;" d="M2914.475,787.792l-149.664,262.568l-149.668-262.556h299.332V787.792z"/>
		<path style="fill:#FFFFFF;" d="M3213.807,787.792l-149.668,262.568h299.332l-149.664-262.556V787.792z"/>
		<path style="fill:#F7F7F7;" d="M3213.807,787.792l-149.668,262.568l-149.664-262.556h299.332V787.792z"/>
		<path style="fill:#EAEAEA;" d="M3513.139,787.792l-149.668,262.568h299.332l-149.664-262.556V787.792z"/>
		<path style="fill:#F7F8F8;" d="M3513.139,787.792l-149.668,262.568l-149.664-262.556h299.332V787.792z"/>
		<path style="fill:#FFFFFF;" d="M3812.471,787.792l-149.668,262.568h299.332l-149.664-262.556V787.792z"/>
		<path style="fill:#F7F8F8;" d="M3812.471,787.792l-149.668,262.568l-149.664-262.556h299.332V787.792z"/>
		<path style="fill:#F7F8F8;" d="M4111.803,787.792l-149.668,262.568h299.332l-149.664-262.556V787.792z"/>
		<path style="fill:#EAEAEA;" d="M4111.803,787.792l-149.668,262.568l-149.664-262.556h299.332V787.792z"/>
		<path style="fill:#EAEAEA;" d="M4411.131,787.792l-149.664,262.568H4560.8l-149.668-262.556V787.792z"/>
		<path style="fill:#E7E7E7;" d="M4411.131,787.792l-149.664,262.568l-149.664-262.556h299.328V787.792z"/>
		<polygon style="fill:#F7F7F7;" points="4800,944.872 4710.463,787.804 4710.463,787.792 4560.8,1050.36 4800,1050.36 		"/>
		<path style="fill:#FDFEFE;" d="M4710.463,787.792L4560.8,1050.36l-149.668-262.556h299.332V787.792z"/>
		<polygon style="fill:#FFFFFF;" points="4800,787.804 4710.463,787.804 4800,944.872 		"/>
		<polygon style="fill:#F7F7F7;" points="0,1312.92 220.491,1312.92 70.827,1050.36 0,1174.612 		"/>
		<polygon style="fill:#FFFFFF;" points="0,1050.36 0,1174.612 70.827,1050.36 		"/>
		<path style="fill:#EAEAEA;" d="M370.155,1050.36l-149.664,262.56h299.332L370.155,1050.36L370.155,1050.36z"/>
		<path style="fill:#EAEAEA;" d="M370.155,1050.36l-149.664,262.56L70.827,1050.36H370.155L370.155,1050.36z"/>
		<path style="fill:#F7F8F8;" d="M669.487,1050.36l-149.664,262.56h299.332L669.487,1050.36L669.487,1050.36z"/>
		<path style="fill:#EAEAEA;" d="M669.487,1050.36l-149.664,262.56l-149.668-262.56H669.487L669.487,1050.36z"/>
		<path style="fill:#FDFEFE;" d="M968.819,1050.36l-149.664,262.56h299.332L968.819,1050.36L968.819,1050.36z"/>
		<path style="fill:#FFFFFF;" d="M968.819,1050.36l-149.664,262.56l-149.668-262.56H968.819L968.819,1050.36z"/>
		<path style="fill:#F7F8F8;" d="M1268.151,1050.36l-149.664,262.56h299.332L1268.151,1050.36L1268.151,1050.36z"/>
		<path style="fill:#F7F8F8;" d="M1268.151,1050.36l-149.664,262.56l-149.668-262.56H1268.151L1268.151,1050.36z"/>
		<path style="fill:#FDFEFE;" d="M1567.483,1050.36l-149.664,262.56h299.328L1567.483,1050.36L1567.483,1050.36z"/>
		<path style="fill:#E7E7E7;" d="M1567.483,1050.36l-149.664,262.56l-149.668-262.56H1567.483L1567.483,1050.36z"/>
		<path style="fill:#FFFFFF;" d="M1866.815,1050.36l-149.668,262.56h299.333L1866.815,1050.36L1866.815,1050.36z"/>
		<path style="fill:#F7F8F8;" d="M1866.815,1050.36l-149.668,262.56l-149.664-262.56H1866.815L1866.815,1050.36z"/>
		<path style="fill:#F7F8F8;" d="M2166.147,1050.36l-149.667,262.56h299.331L2166.147,1050.36L2166.147,1050.36z"/>
		<path style="fill:#EAEAEA;" d="M2166.147,1050.36l-149.667,262.56l-149.665-262.56H2166.147L2166.147,1050.36z"/>
		<path style="fill:#FDFEFE;" d="M2465.48,1050.36l-149.669,262.56h299.332L2465.48,1050.36L2465.48,1050.36z"/>
		<path style="fill:#EAEAEA;" d="M2465.48,1050.36l-149.669,262.56l-149.664-262.56H2465.48L2465.48,1050.36z"/>
		<path style="fill:#FFFFFF;" d="M2764.811,1050.36l-149.668,262.56h299.332L2764.811,1050.36L2764.811,1050.36z"/>
		<path style="fill:#FDFEFE;" d="M2764.811,1050.36l-149.668,262.56l-149.663-262.56H2764.811L2764.811,1050.36z"/>
		<path style="fill:#FDFEFE;" d="M3064.139,1050.36l-149.664,262.56h299.332L3064.139,1050.36L3064.139,1050.36z"/>
		<path style="fill:#EAEAEA;" d="M3064.139,1050.36l-149.664,262.56l-149.664-262.56H3064.139L3064.139,1050.36z"/>
		<path style="fill:#F7F8F8;" d="M3363.471,1050.36l-149.664,262.56h299.332L3363.471,1050.36L3363.471,1050.36z"/>
		<path style="fill:#EAEAEA;" d="M3363.471,1050.36l-149.664,262.56l-149.668-262.56H3363.471L3363.471,1050.36z"/>
		<path style="fill:#FDFEFE;" d="M3662.803,1050.36l-149.664,262.56h299.332L3662.803,1050.36L3662.803,1050.36z"/>
		<path style="fill:#E7E7E7;" d="M3662.803,1050.36l-149.664,262.56l-149.668-262.56H3662.803L3662.803,1050.36z"/>
		<path style="fill:#EAEAEA;" d="M3962.135,1050.36l-149.664,262.56h299.332L3962.135,1050.36L3962.135,1050.36z"/>
		<path style="fill:#F7F7F7;" d="M3962.135,1050.36l-149.664,262.56l-149.668-262.56H3962.135L3962.135,1050.36z"/>
		<path style="fill:#E7E7E7;" d="M4261.467,1050.36l-149.664,262.56h299.328L4261.467,1050.36L4261.467,1050.36z"/>
		<path style="fill:#FDFEFE;" d="M4261.467,1050.36l-149.664,262.56l-149.668-262.56H4261.467L4261.467,1050.36z"/>
		<path style="fill:#F7F7F7;" d="M4560.8,1050.36l-149.668,262.56h299.332L4560.8,1050.36L4560.8,1050.36z"/>
		<path style="fill:#FDFEFE;" d="M4560.8,1050.36l-149.668,262.56l-149.664-262.56H4560.8L4560.8,1050.36z"/>
		<polygon style="fill:#F7F7F7;" points="4800,1155.848 4710.463,1312.92 4800,1312.92 		"/>
		<polygon style="fill:#EAEAEA;" points="4800,1050.36 4560.8,1050.36 4710.463,1312.92 4800,1155.848 		"/>
		<polygon style="fill:#FDFEFE;" points="0,1451.24 0,1575.5 70.827,1575.5 		"/>
		<path style="fill:#FDFEFE;" d="M220.491,1312.924L70.827,1575.5h299.328l-149.664-262.58V1312.924z"/>
		<polygon style="fill:#EAEAEA;" points="0,1312.92 0,1451.24 70.827,1575.5 220.491,1312.924 220.491,1312.92 		"/>
		<path style="fill:#EAEAEA;" d="M519.823,1312.924L370.155,1575.5h299.332l-149.664-262.58V1312.924z"/>
		<path style="fill:#FDFEFE;" d="M519.823,1312.924L370.155,1575.5l-149.664-262.58h299.332V1312.924z"/>
		<path style="fill:#EAEAEA;" d="M819.155,1312.924L669.487,1575.5h299.332l-149.664-262.58V1312.924z"/>
		<path style="fill:#EAEAEA;" d="M819.155,1312.924L669.487,1575.5l-149.664-262.58h299.332V1312.924z"/>
		<path style="fill:#FDFEFE;" d="M1118.487,1312.924L968.819,1575.5h299.332l-149.664-262.58V1312.924z"/>
		<path style="fill:#FDFEFE;" d="M1118.487,1312.924L968.819,1575.5l-149.664-262.58h299.332V1312.924z"/>
		<path style="fill:#F7F7F7;" d="M1417.819,1312.924L1268.151,1575.5h299.332l-149.664-262.58V1312.924z"/>
		<path style="fill:#FFFFFF;" d="M1417.819,1312.924L1268.151,1575.5l-149.664-262.58h299.332V1312.924z"/>
		<path style="fill:#F7F8F8;" d="M1717.147,1312.924L1567.483,1575.5h299.332l-149.668-262.58V1312.924z"/>
		<path style="fill:#F7F8F8;" d="M1717.147,1312.924L1567.483,1575.5l-149.664-262.58h299.328V1312.924z"/>
		<path style="fill:#EAEAEA;" d="M2016.48,1312.924L1866.815,1575.5h299.332l-149.667-262.58V1312.924z"/>
		<path style="fill:#F7F8F8;" d="M2016.48,1312.924L1866.815,1575.5l-149.668-262.58h299.333V1312.924z"/>
		<path style="fill:#FDFEFE;" d="M2315.811,1312.924L2166.147,1575.5h299.333l-149.669-262.58V1312.924z"/>
		<path style="fill:#FDFEFE;" d="M2315.811,1312.924L2166.147,1575.5l-149.667-262.58h299.331V1312.924z"/>
		<path style="fill:#FDFEFE;" d="M2615.143,1312.924L2465.48,1575.5h299.331l-149.668-262.58V1312.924z"/>
		<path style="fill:#F7F7F7;" d="M2615.143,1312.924L2465.48,1575.5l-149.669-262.58h299.332V1312.924z"/>
		<path style="fill:#FDFEFE;" d="M2914.475,1312.924L2764.811,1575.5h299.328l-149.664-262.58V1312.924z"/>
		<path style="fill:#FFFFFF;" d="M2914.475,1312.924L2764.811,1575.5l-149.668-262.58h299.332V1312.924z"/>
		<path style="fill:#EAEAEA;" d="M3213.807,1312.924L3064.139,1575.5h299.332l-149.664-262.58V1312.924z"/>
		<path style="fill:#FDFEFE;" d="M3213.807,1312.924L3064.139,1575.5l-149.664-262.58h299.332V1312.924z"/>
		<path style="fill:#FDFEFE;" d="M3513.139,1312.924L3363.471,1575.5h299.332l-149.664-262.58V1312.924z"/>
		<path style="fill:#F7F8F8;" d="M3513.139,1312.924L3363.471,1575.5l-149.664-262.58h299.332V1312.924z"/>
		<path style="fill:#FDFEFE;" d="M3812.471,1312.924L3662.803,1575.5h299.332l-149.664-262.58V1312.924z"/>
		<path style="fill:#F7F8F8;" d="M3812.471,1312.924L3662.803,1575.5l-149.664-262.58h299.332V1312.924z"/>
		<path style="fill:#F7F7F7;" d="M4111.803,1312.924L3962.135,1575.5h299.332l-149.664-262.58V1312.924z"/>
		<path style="fill:#FFFFFF;" d="M4111.803,1312.924L3962.135,1575.5l-149.664-262.58h299.332V1312.924z"/>
		<path style="fill:#F7F7F7;" d="M4411.131,1312.924L4261.467,1575.5H4560.8l-149.668-262.58V1312.924z"/>
		<path style="fill:#FDFEFE;" d="M4411.131,1312.924L4261.467,1575.5l-149.664-262.58h299.328V1312.924z"/>
		<polygon style="fill:#FDFEFE;" points="4800,1470.004 4710.463,1312.92 4710.463,1312.924 4560.8,1575.5 4800,1575.5 		"/>
		<path style="fill:#FFFFFF;" d="M4710.463,1312.924L4560.8,1575.5l-149.668-262.58h299.332V1312.924z"/>
		<polygon style="fill:#F7F8F8;" points="4800,1312.92 4710.463,1312.92 4800,1470.004 		"/>
		<polygon style="fill:#F7F8F8;" points="0,1699.744 0,1838.06 220.491,1838.06 70.827,1575.5 70.827,1575.488 		"/>
		<polygon style="fill:#F7F8F8;" points="0,1699.744 70.819,1575.5 0,1575.5 		"/>
		<path style="fill:#FDFEFE;" d="M370.155,1575.488L220.491,1838.06h299.332L370.155,1575.5V1575.488z"/>
		<path style="fill:#EAEAEA;" d="M370.155,1575.488L220.491,1838.06L70.827,1575.5h299.328V1575.488z"/>
		<path style="fill:#E7E7E7;" d="M669.487,1575.488L519.823,1838.06h299.332L669.487,1575.5V1575.488z"/>
		<path style="fill:#EAEAEA;" d="M669.487,1575.488L519.823,1838.06L370.155,1575.5h299.332V1575.488z"/>
		<path style="fill:#F7F7F7;" d="M968.819,1575.488L819.155,1838.06h299.332L968.819,1575.5V1575.488z"/>
		<path style="fill:#FDFEFE;" d="M968.819,1575.488L819.155,1838.06L669.487,1575.5h299.332V1575.488z"/>
		<path style="fill:#EAEAEA;" d="M1268.151,1575.488l-149.664,262.572h299.332l-149.668-262.56V1575.488z"/>
		<path style="fill:#FDFEFE;" d="M1268.151,1575.488l-149.664,262.572L968.819,1575.5h299.332V1575.488z"/>
		<path style="fill:#FDFEFE;" d="M1567.483,1575.488l-149.664,262.572h299.328l-149.664-262.56V1575.488z"/>
		<path style="fill:#F7F7F7;" d="M1567.483,1575.488l-149.664,262.572l-149.668-262.56h299.332V1575.488z"/>
		<path style="fill:#E7E7E7;" d="M1866.815,1575.488l-149.668,262.572h299.333l-149.665-262.56V1575.488z"/>
		<path style="fill:#F7F7F7;" d="M1866.815,1575.488l-149.668,262.572l-149.664-262.56h299.332V1575.488z"/>
		<path style="fill:#FDFEFE;" d="M2166.147,1575.488L2016.48,1838.06h299.331l-149.664-262.56V1575.488z"/>
		<path style="fill:#EAEAEA;" d="M2166.147,1575.488L2016.48,1838.06l-149.665-262.56h299.332V1575.488z"/>
		<path style="fill:#FDFEFE;" d="M2465.48,1575.488l-149.669,262.572h299.332L2465.48,1575.5V1575.488z"/>
		<path style="fill:#F7F7F7;" d="M2465.48,1575.488l-149.669,262.572l-149.664-262.56h299.333V1575.488z"/>
		<path style="fill:#FFFFFF;" d="M2764.811,1575.488l-149.668,262.572h299.332l-149.664-262.56V1575.488z"/>
		<path style="fill:#FDFEFE;" d="M2764.811,1575.488l-149.668,262.572L2465.48,1575.5h299.331V1575.488z"/>
		<path style="fill:#E7E7E7;" d="M3064.139,1575.488l-149.664,262.572h299.332l-149.668-262.56V1575.488z"/>
		<path style="fill:#FFFFFF;" d="M3064.139,1575.488l-149.664,262.572l-149.664-262.56h299.328V1575.488z"/>
		<path style="fill:#FDFEFE;" d="M3363.471,1575.488l-149.664,262.572h299.332l-149.668-262.56V1575.488z"/>
		<path style="fill:#F7F7F7;" d="M3363.471,1575.488l-149.664,262.572l-149.668-262.56h299.332V1575.488z"/>
		<path style="fill:#F7F8F8;" d="M3662.803,1575.488l-149.664,262.572h299.332l-149.668-262.56V1575.488z"/>
		<path style="fill:#E7E7E7;" d="M3662.803,1575.488l-149.664,262.572l-149.668-262.56h299.332V1575.488z"/>
		<path style="fill:#F7F7F7;" d="M3962.135,1575.488l-149.664,262.572h299.332l-149.668-262.56V1575.488z"/>
		<path style="fill:#F7F7F7;" d="M3962.135,1575.488l-149.664,262.572l-149.668-262.56h299.332V1575.488z"/>
		<path style="fill:#E7E7E7;" d="M4261.467,1575.488l-149.664,262.572h299.328l-149.664-262.56V1575.488z"/>
		<path style="fill:#FDFEFE;" d="M4261.467,1575.488l-149.664,262.572l-149.668-262.56h299.332V1575.488z"/>
		<path style="fill:#EAEAEA;" d="M4560.8,1575.488l-149.668,262.572h299.332L4560.8,1575.5V1575.488z"/>
		<path style="fill:#EAEAEA;" d="M4560.8,1575.488l-149.668,262.572l-149.664-262.56H4560.8V1575.488z"/>
		<polygon style="fill:#FFFFFF;" points="4800,1680.984 4710.463,1838.06 4800,1838.06 		"/>
		<polygon style="fill:#F7F7F7;" points="4800,1575.5 4560.8,1575.5 4710.463,1838.06 4800,1680.984 		"/>
		<polygon style="fill:#E7E7E7;" points="0,1976.368 0,2100.616 70.827,2100.616 		"/>
		<path style="fill:#F7F7F7;" d="M220.491,1838.056l-149.664,262.56h299.328L220.491,1838.06V1838.056z"/>
		<polygon style="fill:#E7E7E7;" points="0,1976.368 70.827,2100.616 220.487,1838.06 0,1838.06 		"/>
		<path style="fill:#EAEAEA;" d="M519.823,1838.056l-149.668,262.56h299.332L519.823,1838.06V1838.056z"/>
		<path style="fill:#FDFEFE;" d="M519.823,1838.056l-149.668,262.56L220.491,1838.06h299.332V1838.056z"/>
		<path style="fill:#EAEAEA;" d="M819.155,1838.056l-149.668,262.56h299.332L819.155,1838.06V1838.056z"/>
		<path style="fill:#FDFEFE;" d="M819.155,1838.056l-149.668,262.56L519.823,1838.06h299.332V1838.056z"/>
		<path style="fill:#FFFFFF;" d="M1118.487,1838.056l-149.668,262.56h299.332l-149.664-262.556V1838.056z"/>
		<path style="fill:#FDFEFE;" d="M1118.487,1838.056l-149.668,262.56L819.155,1838.06h299.332V1838.056z"/>
		<path style="fill:#EAEAEA;" d="M1417.819,1838.056l-149.668,262.56h299.332l-149.664-262.556V1838.056z"/>
		<path style="fill:#FDFEFE;" d="M1417.819,1838.056l-149.668,262.56l-149.664-262.556h299.332V1838.056z"/>
		<path style="fill:#FDFEFE;" d="M1717.147,1838.056l-149.664,262.56h299.332l-149.668-262.556V1838.056z"/>
		<path style="fill:#F7F7F7;" d="M1717.147,1838.056l-149.664,262.56l-149.664-262.556h299.328V1838.056z"/>
		<path style="fill:#FDFEFE;" d="M2016.48,1838.056l-149.665,262.56h299.332L2016.48,1838.06V1838.056z"/>
		<path style="fill:#E7E7E7;" d="M2016.48,1838.056l-149.665,262.56l-149.668-262.556h299.333V1838.056z"/>
		<path style="fill:#FDFEFE;" d="M2315.811,1838.056l-149.664,262.56h299.333l-149.669-262.556V1838.056z"/>
		<path style="fill:#FDFEFE;" d="M2315.811,1838.056l-149.664,262.56L2016.48,1838.06h299.331V1838.056z"/>
		<path style="fill:#FDFEFE;" d="M2615.143,1838.056l-149.663,262.56h299.331l-149.668-262.556V1838.056z"/>
		<path style="fill:#F7F8F8;" d="M2615.143,1838.056l-149.663,262.56l-149.669-262.556h299.332V1838.056z"/>
		<path style="fill:#FDFEFE;" d="M2914.475,1838.056l-149.664,262.56h299.328l-149.664-262.556V1838.056z"/>
		<path style="fill:#F7F7F7;" d="M2914.475,1838.056l-149.664,262.56l-149.668-262.556h299.332V1838.056z"/>
		<path style="fill:#F7F8F8;" d="M3213.807,1838.056l-149.668,262.56h299.332l-149.664-262.556V1838.056z"/>
		<path style="fill:#EAEAEA;" d="M3213.807,1838.056l-149.668,262.56l-149.664-262.556h299.332V1838.056z"/>
		<path style="fill:#F7F8F8;" d="M3513.139,1838.056l-149.668,262.56h299.332l-149.664-262.556V1838.056z"/>
		<path style="fill:#F7F8F8;" d="M3513.139,1838.056l-149.668,262.56l-149.664-262.556h299.332V1838.056z"/>
		<path style="fill:#F7F8F8;" d="M3812.471,1838.056l-149.668,262.56h299.332l-149.664-262.556V1838.056z"/>
		<path style="fill:#FDFEFE;" d="M3812.471,1838.056l-149.668,262.56l-149.664-262.556h299.332V1838.056z"/>
		<path style="fill:#FDFEFE;" d="M4111.803,1838.056l-149.668,262.56h299.332l-149.664-262.556V1838.056z"/>
		<path style="fill:#FDFEFE;" d="M4111.803,1838.056l-149.668,262.56l-149.664-262.556h299.332V1838.056z"/>
		<path style="fill:#E7E7E7;" d="M4411.131,1838.056l-149.664,262.56H4560.8l-149.668-262.556V1838.056z"/>
		<path style="fill:#F7F8F8;" d="M4411.131,1838.056l-149.664,262.56l-149.664-262.556h299.328V1838.056z"/>
		<polygon style="fill:#FDFEFE;" points="4800,1995.128 4710.463,1838.06 4710.463,1838.056 4560.8,2100.616 4800,2100.616 		"/>
		<path style="fill:#E7E7E7;" d="M4710.463,1838.056l-149.664,262.56l-149.668-262.556h299.332V1838.056z"/>
		<polygon style="fill:#FDFEFE;" points="4800,1838.06 4710.463,1838.06 4800,1995.128 		"/>
		<polygon style="fill:#FFFFFF;" points="0,2363.176 220.491,2363.176 70.827,2100.616 70.827,2100.62 0,2224.868 		"/>
		<polygon style="fill:#E7E7E7;" points="0,2100.616 0,2224.868 70.827,2100.62 70.827,2100.616 		"/>
		<path style="fill:#F7F7F7;" d="M370.155,2100.62l-149.664,262.556h299.332l-149.668-262.56V2100.62z"/>
		<path style="fill:#FDFEFE;" d="M370.155,2100.62l-149.664,262.556l-149.664-262.56h299.328V2100.62z"/>
		<path style="fill:#F7F8F8;" d="M669.487,2100.62l-149.664,262.556h299.332l-149.668-262.56V2100.62z"/>
		<path style="fill:#EAEAEA;" d="M669.487,2100.62l-149.664,262.556l-149.668-262.56h299.332V2100.62z"/>
		<path style="fill:#FDFEFE;" d="M968.819,2100.62l-149.664,262.556h299.332l-149.668-262.56V2100.62z"/>
		<path style="fill:#F7F7F7;" d="M968.819,2100.62l-149.664,262.556l-149.668-262.56h299.332V2100.62z"/>
		<path style="fill:#FDFEFE;" d="M1268.151,2100.62l-149.664,262.556h299.332l-149.668-262.56V2100.62z"/>
		<path style="fill:#FFFFFF;" d="M1268.151,2100.62l-149.664,262.556l-149.668-262.56h299.332V2100.62z"/>
		<path style="fill:#FDFEFE;" d="M1567.483,2100.62l-149.664,262.556h299.328l-149.664-262.56V2100.62z"/>
		<path style="fill:#F7F8F8;" d="M1567.483,2100.62l-149.664,262.556l-149.668-262.56h299.332V2100.62z"/>
		<path style="fill:#F7F7F7;" d="M1866.815,2100.62l-149.668,262.556h299.333l-149.665-262.56V2100.62z"/>
		<path style="fill:#FFFFFF;" d="M1866.815,2100.62l-149.668,262.556l-149.664-262.56h299.332V2100.62z"/>
		<path style="fill:#F7F7F7;" d="M2166.147,2100.62l-149.667,262.556h299.331l-149.664-262.56V2100.62z"/>
		<path style="fill:#FDFEFE;" d="M2166.147,2100.62l-149.667,262.556l-149.665-262.56h299.332V2100.62z"/>
		<path style="fill:#EAEAEA;" d="M2465.48,2100.62l-149.669,262.556h299.332l-149.663-262.56V2100.62z"/>
		<path style="fill:#EAEAEA;" d="M2465.48,2100.62l-149.669,262.556l-149.664-262.56h299.333V2100.62z"/>
		<path style="fill:#EAEAEA;" d="M2764.811,2100.62l-149.668,262.556h299.332l-149.664-262.56V2100.62z"/>
		<path style="fill:#E7E7E7;" d="M2764.811,2100.62l-149.668,262.556l-149.663-262.56h299.331V2100.62z"/>
		<path style="fill:#EAEAEA;" d="M3064.139,2100.62l-149.664,262.556h299.332l-149.668-262.56V2100.62z"/>
		<path style="fill:#F7F7F7;" d="M3064.139,2100.62l-149.664,262.556l-149.664-262.56h299.328V2100.62z"/>
		<path style="fill:#F7F8F8;" d="M3363.471,2100.62l-149.664,262.556h299.332l-149.668-262.56V2100.62z"/>
		<path style="fill:#FDFEFE;" d="M3363.471,2100.62l-149.664,262.556l-149.668-262.56h299.332V2100.62z"/>
		<path style="fill:#EAEAEA;" d="M3662.803,2100.62l-149.664,262.556h299.332l-149.668-262.56V2100.62z"/>
		<path style="fill:#EAEAEA;" d="M3662.803,2100.62l-149.664,262.556l-149.668-262.56h299.332V2100.62z"/>
		<path style="fill:#EAEAEA;" d="M3962.135,2100.62l-149.664,262.556h299.332l-149.668-262.56V2100.62z"/>
		<path style="fill:#F7F7F7;" d="M3962.135,2100.62l-149.664,262.556l-149.668-262.56h299.332V2100.62z"/>
		<path style="fill:#EAEAEA;" d="M4261.467,2100.62l-149.664,262.556h299.328l-149.664-262.56V2100.62z"/>
		<path style="fill:#F7F8F8;" d="M4261.467,2100.62l-149.664,262.556l-149.668-262.56h299.332V2100.62z"/>
		<path style="fill:#FFFFFF;" d="M4560.8,2100.62l-149.668,262.556h299.332l-149.664-262.56V2100.62z"/>
		<path style="fill:#FDFEFE;" d="M4560.8,2100.62l-149.668,262.556l-149.664-262.56H4560.8V2100.62z"/>
		<polygon style="fill:#EAEAEA;" points="4800,2206.108 4710.463,2363.176 4800,2363.176 		"/>
		<polygon style="fill:#E7E7E7;" points="4800,2100.616 4560.8,2100.616 4710.463,2363.176 4800,2206.108 		"/>
		<polygon style="fill:#F7F8F8;" points="0,2501.496 0,2625.756 70.827,2625.756 		"/>
		<path style="fill:#F7F8F8;" d="M220.491,2363.188L70.827,2625.756h299.328l-149.664-262.58V2363.188z"/>
		<polygon style="fill:#E7E7E7;" points="0,2363.176 0,2501.496 70.827,2625.756 220.491,2363.188 220.491,2363.176 		"/>
		<path style="fill:#FDFEFE;" d="M519.823,2363.188l-149.668,262.568h299.332l-149.664-262.58V2363.188z"/>
		<path style="fill:#FFFFFF;" d="M519.823,2363.188l-149.668,262.568l-149.664-262.58h299.332V2363.188z"/>
		<path style="fill:#F7F8F8;" d="M819.155,2363.188l-149.668,262.568h299.332l-149.664-262.58V2363.188z"/>
		<path style="fill:#F7F7F7;" d="M819.155,2363.188l-149.668,262.568l-149.664-262.58h299.332V2363.188z"/>
		<path style="fill:#FFFFFF;" d="M1118.487,2363.188l-149.668,262.568h299.332l-149.664-262.58V2363.188z"/>
		<path style="fill:#F7F7F7;" d="M1118.487,2363.188l-149.668,262.568l-149.664-262.58h299.332V2363.188z"/>
		<path style="fill:#E7E7E7;" d="M1417.819,2363.188l-149.668,262.568h299.332l-149.664-262.58V2363.188z"/>
		<path style="fill:#EAEAEA;" d="M1417.819,2363.188l-149.668,262.568l-149.664-262.58h299.332V2363.188z"/>
		<path style="fill:#E7E7E7;" d="M1717.147,2363.188l-149.664,262.568h299.332l-149.668-262.58V2363.188z"/>
		<path style="fill:#F7F8F8;" d="M1717.147,2363.188l-149.664,262.568l-149.664-262.58h299.328V2363.188z"/>
		<path style="fill:#FFFFFF;" d="M2016.48,2363.188l-149.665,262.568h299.332l-149.667-262.58V2363.188z"/>
		<path style="fill:#E7E7E7;" d="M2016.48,2363.188l-149.665,262.568l-149.668-262.58h299.333V2363.188z"/>
		<path style="fill:#FDFEFE;" d="M2315.811,2363.188l-149.664,262.568h299.333l-149.669-262.58V2363.188z"/>
		<path style="fill:#F7F8F8;" d="M2315.811,2363.188l-149.664,262.568l-149.667-262.58h299.331V2363.188z"/>
		<path style="fill:#F7F7F7;" d="M2615.143,2363.188l-149.663,262.568h299.331l-149.668-262.58V2363.188z"/>
		<path style="fill:#E7E7E7;" d="M2615.143,2363.188l-149.663,262.568l-149.669-262.58h299.332V2363.188z"/>
		<path style="fill:#F7F7F7;" d="M2914.475,2363.188l-149.664,262.568h299.328l-149.664-262.58V2363.188z"/>
		<path style="fill:#F7F8F8;" d="M2914.475,2363.188l-149.664,262.568l-149.668-262.58h299.332V2363.188z"/>
		<path style="fill:#FDFEFE;" d="M3213.807,2363.188l-149.668,262.568h299.332l-149.664-262.58V2363.188z"/>
		<path style="fill:#FDFEFE;" d="M3213.807,2363.188l-149.668,262.568l-149.664-262.58h299.332V2363.188z"/>
		<path style="fill:#EAEAEA;" d="M3513.139,2363.188l-149.668,262.568h299.332l-149.664-262.58V2363.188z"/>
		<path style="fill:#FFFFFF;" d="M3513.139,2363.188l-149.668,262.568l-149.664-262.58h299.332V2363.188z"/>
		<path style="fill:#FDFEFE;" d="M3812.471,2363.188l-149.668,262.568h299.332l-149.664-262.58V2363.188z"/>
		<path style="fill:#F7F7F7;" d="M3812.471,2363.188l-149.668,262.568l-149.664-262.58h299.332V2363.188z"/>
		<path style="fill:#F7F7F7;" d="M4111.803,2363.188l-149.668,262.568h299.332l-149.664-262.58V2363.188z"/>
		<path style="fill:#EAEAEA;" d="M4111.803,2363.188l-149.668,262.568l-149.664-262.58h299.332V2363.188z"/>
		<path style="fill:#F7F7F7;" d="M4411.131,2363.188l-149.664,262.568H4560.8l-149.668-262.58V2363.188z"/>
		<path style="fill:#FDFEFE;" d="M4411.131,2363.188l-149.664,262.568l-149.664-262.58h299.328V2363.188z"/>
		<polygon style="fill:#FDFEFE;" points="4800,2520.26 4710.463,2363.176 4710.463,2363.188 4560.8,2625.756 4800,2625.756 		"/>
		<path style="fill:#F7F7F7;" d="M4710.463,2363.188L4560.8,2625.756l-149.668-262.58h299.332V2363.188z"/>
		<polygon style="fill:#EAEAEA;" points="4800,2363.176 4710.463,2363.176 4800,2520.26 		"/>
		<polygon style="fill:#F7F7F7;" points="0,2750.004 0,2888.316 220.491,2888.316 70.827,2625.756 70.827,2625.752 		"/>
		<polygon style="fill:#EAEAEA;" points="0,2750.004 70.823,2625.756 0,2625.756 		"/>
		<path style="fill:#EAEAEA;" d="M370.155,2625.752l-149.664,262.564h299.332l-149.668-262.56V2625.752z"/>
		<path style="fill:#E7E7E7;" d="M370.155,2625.752l-149.664,262.564l-149.664-262.56h299.328V2625.752z"/>
		<path style="fill:#EAEAEA;" d="M669.487,2625.752l-149.664,262.564h299.332l-149.668-262.56V2625.752z"/>
		<path style="fill:#EAEAEA;" d="M669.487,2625.752l-149.664,262.564l-149.668-262.56h299.332V2625.752z"/>
		<path style="fill:#F7F8F8;" d="M968.819,2625.752l-149.664,262.564h299.332l-149.668-262.56V2625.752z"/>
		<path style="fill:#F7F7F7;" d="M968.819,2625.752l-149.664,262.564l-149.668-262.56h299.332V2625.752z"/>
		<path style="fill:#F7F7F7;" d="M1268.151,2625.752l-149.664,262.564h299.332l-149.668-262.56V2625.752z"/>
		<path style="fill:#F7F7F7;" d="M1268.151,2625.752l-149.664,262.564l-149.668-262.56h299.332V2625.752z"/>
		<path style="fill:#F7F8F8;" d="M1567.483,2625.752l-149.664,262.564h299.328l-149.664-262.56V2625.752z"/>
		<path style="fill:#EAEAEA;" d="M1567.483,2625.752l-149.664,262.564l-149.668-262.56h299.332V2625.752z"/>
		<path style="fill:#FFFFFF;" d="M1866.815,2625.752l-149.668,262.564h299.333l-149.665-262.56V2625.752z"/>
		<path style="fill:#F7F8F8;" d="M1866.815,2625.752l-149.668,262.564l-149.664-262.56h299.332V2625.752z"/>
		<path style="fill:#E7E7E7;" d="M2166.147,2625.752l-149.667,262.564h299.331l-149.664-262.56V2625.752z"/>
		<path style="fill:#FDFEFE;" d="M2166.147,2625.752l-149.667,262.564l-149.665-262.56h299.332V2625.752z"/>
		<path style="fill:#F7F8F8;" d="M2465.48,2625.752l-149.669,262.564h299.332l-149.663-262.56V2625.752z"/>
		<path style="fill:#EAEAEA;" d="M2465.48,2625.752l-149.669,262.564l-149.664-262.56h299.333V2625.752z"/>
		<path style="fill:#FDFEFE;" d="M2764.811,2625.752l-149.668,262.564h299.332l-149.664-262.56V2625.752z"/>
		<path style="fill:#FFFFFF;" d="M2764.811,2625.752l-149.668,262.564l-149.663-262.56h299.331V2625.752z"/>
		<path style="fill:#F7F7F7;" d="M3064.139,2625.752l-149.664,262.564h299.332l-149.668-262.56V2625.752z"/>
		<path style="fill:#F7F7F7;" d="M3064.139,2625.752l-149.664,262.564l-149.664-262.56h299.328V2625.752z"/>
		<path style="fill:#F7F7F7;" d="M3363.471,2625.752l-149.664,262.564h299.332l-149.668-262.56V2625.752z"/>
		<path style="fill:#F7F8F8;" d="M3363.471,2625.752l-149.664,262.564l-149.668-262.56h299.332V2625.752z"/>
		<path style="fill:#F7F7F7;" d="M3662.803,2625.752l-149.664,262.564h299.332l-149.668-262.56V2625.752z"/>
		<path style="fill:#FFFFFF;" d="M3662.803,2625.752l-149.664,262.564l-149.668-262.56h299.332V2625.752z"/>
		<path style="fill:#EAEAEA;" d="M3962.135,2625.752l-149.664,262.564h299.332l-149.668-262.56V2625.752z"/>
		<path style="fill:#F7F7F7;" d="M3962.135,2625.752l-149.664,262.564l-149.668-262.56h299.332V2625.752z"/>
		<path style="fill:#F7F7F7;" d="M4261.467,2625.752l-149.664,262.564h299.328l-149.664-262.56V2625.752z"/>
		<path style="fill:#F7F7F7;" d="M4261.467,2625.752l-149.664,262.564l-149.668-262.56h299.332V2625.752z"/>
		<path style="fill:#E7E7E7;" d="M4560.8,2625.752l-149.668,262.564h299.332l-149.664-262.56V2625.752z"/>
		<path style="fill:#FFFFFF;" d="M4560.8,2625.752l-149.668,262.564l-149.664-262.56H4560.8V2625.752z"/>
		<polygon style="fill:#FFFFFF;" points="4800,2731.244 4710.463,2888.316 4800,2888.316 		"/>
		<polygon style="fill:#EAEAEA;" points="4800,2625.756 4560.8,2625.756 4710.463,2888.316 4800,2731.244 		"/>
		<polygon style="fill:#EAEAEA;" points="0,3026.624 0,3150.872 70.827,3150.872 		"/>
		<path style="fill:#FDFEFE;" d="M220.491,2888.316l-149.664,262.56h299.328L220.491,2888.316L220.491,2888.316z"/>
		<polygon style="fill:#EAEAEA;" points="0,2888.316 0,3026.624 70.827,3150.872 220.491,2888.316 		"/>
		<path style="fill:#EAEAEA;" d="M519.823,2888.316l-149.668,262.56h299.332L519.823,2888.316L519.823,2888.316z"/>
		<path style="fill:#F7F8F8;" d="M519.823,2888.316l-149.668,262.56l-149.664-262.56H519.823L519.823,2888.316z"/>
		<path style="fill:#FFFFFF;" d="M819.155,2888.316l-149.668,262.56h299.332L819.155,2888.316L819.155,2888.316z"/>
		<path style="fill:#FFFFFF;" d="M819.155,2888.316l-149.668,262.56l-149.664-262.56H819.155L819.155,2888.316z"/>
		<path style="fill:#F7F8F8;" d="M1118.487,2888.316l-149.668,262.56h299.332L1118.487,2888.316L1118.487,2888.316z"/>
		<path style="fill:#F7F7F7;" d="M1118.487,2888.316l-149.668,262.56l-149.664-262.56H1118.487L1118.487,2888.316z"/>
		<path style="fill:#FFFFFF;" d="M1417.819,2888.316l-149.668,262.56h299.332L1417.819,2888.316L1417.819,2888.316z"/>
		<path style="fill:#F7F8F8;" d="M1417.819,2888.316l-149.668,262.56l-149.664-262.56H1417.819L1417.819,2888.316z"/>
		<path style="fill:#F7F8F8;" d="M1717.147,2888.316l-149.664,262.56h299.332L1717.147,2888.316L1717.147,2888.316z"/>
		<path style="fill:#FDFEFE;" d="M1717.147,2888.316l-149.664,262.56l-149.664-262.56H1717.147L1717.147,2888.316z"/>
		<path style="fill:#F7F8F8;" d="M2016.48,2888.316l-149.665,262.56h299.332L2016.48,2888.316L2016.48,2888.316z"/>
		<path style="fill:#F7F7F7;" d="M2016.48,2888.316l-149.665,262.56l-149.668-262.56H2016.48L2016.48,2888.316z"/>
		<path style="fill:#EAEAEA;" d="M2315.811,2888.316l-149.664,262.56h299.333L2315.811,2888.316L2315.811,2888.316z"/>
		<path style="fill:#EAEAEA;" d="M2315.811,2888.316l-149.664,262.56l-149.667-262.56H2315.811L2315.811,2888.316z"/>
		<path style="fill:#F7F8F8;" d="M2615.143,2888.316l-149.663,262.56h299.331L2615.143,2888.316L2615.143,2888.316z"/>
		<path style="fill:#F7F7F7;" d="M2615.143,2888.316l-149.663,262.56l-149.669-262.56H2615.143L2615.143,2888.316z"/>
		<path style="fill:#F7F8F8;" d="M2914.475,2888.316l-149.664,262.56h299.328L2914.475,2888.316L2914.475,2888.316z"/>
		<path style="fill:#FDFEFE;" d="M2914.475,2888.316l-149.664,262.56l-149.668-262.56H2914.475L2914.475,2888.316z"/>
		<path style="fill:#FFFFFF;" d="M3213.807,2888.316l-149.668,262.56h299.332L3213.807,2888.316L3213.807,2888.316z"/>
		<path style="fill:#F7F7F7;" d="M3213.807,2888.316l-149.668,262.56l-149.664-262.56H3213.807L3213.807,2888.316z"/>
		<path style="fill:#F7F8F8;" d="M3513.139,2888.316l-149.668,262.56h299.332L3513.139,2888.316L3513.139,2888.316z"/>
		<path style="fill:#FDFEFE;" d="M3513.139,2888.316l-149.668,262.56l-149.664-262.56H3513.139L3513.139,2888.316z"/>
		<path style="fill:#FFFFFF;" d="M3812.471,2888.316l-149.668,262.56h299.332L3812.471,2888.316L3812.471,2888.316z"/>
		<path style="fill:#E7E7E7;" d="M3812.471,2888.316l-149.668,262.56l-149.664-262.56H3812.471L3812.471,2888.316z"/>
		<path style="fill:#FDFEFE;" d="M4111.803,2888.316l-149.668,262.56h299.332L4111.803,2888.316L4111.803,2888.316z"/>
		<path style="fill:#FFFFFF;" d="M4111.803,2888.316l-149.668,262.56l-149.664-262.56H4111.803L4111.803,2888.316z"/>
		<path style="fill:#F7F7F7;" d="M4411.131,2888.316l-149.664,262.56H4560.8L4411.131,2888.316L4411.131,2888.316z"/>
		<path style="fill:#F7F8F8;" d="M4411.131,2888.316l-149.664,262.56l-149.664-262.56H4411.131L4411.131,2888.316z"/>
		<polygon style="fill:#EAEAEA;" points="4800,3045.384 4710.463,2888.316 4560.8,3150.872 4800,3150.872 		"/>
		<path style="fill:#EAEAEA;" d="M4710.463,2888.316l-149.664,262.56l-149.668-262.56H4710.463L4710.463,2888.316z"/>
		<polygon style="fill:#F7F8F8;" points="4800,2888.316 4710.463,2888.316 4800,3045.384 		"/>
		<polygon style="fill:#F7F8F8;" points="0,3400 212.823,3400 70.827,3150.872 70.827,3150.88 0,3275.14 		"/>
		<polygon style="fill:#F7F7F7;" points="0,3150.872 0,3275.14 70.827,3150.88 70.827,3150.872 		"/>
		<polygon style="fill:#F7F8F8;" points="512.151,3400 370.155,3150.872 370.155,3150.88 228.16,3400 		"/>
		<polygon style="fill:#F7F8F8;" points="228.16,3400 370.155,3150.88 370.155,3150.872 70.827,3150.872 212.823,3400 		"/>
		<polygon style="fill:#E7E7E7;" points="811.483,3400 669.487,3150.872 669.487,3150.88 527.491,3400 		"/>
		<polygon style="fill:#E7E7E7;" points="527.491,3400 669.487,3150.88 669.487,3150.872 370.155,3150.872 512.151,3400 		"/>
		<polygon style="fill:#EAEAEA;" points="1110.815,3400 968.819,3150.872 968.819,3150.88 826.823,3400 		"/>
		<polygon style="fill:#F7F7F7;" points="826.823,3400 968.819,3150.88 968.819,3150.872 669.487,3150.872 811.483,3400 		"/>
		<polygon style="fill:#EAEAEA;" points="1410.147,3400 1268.151,3150.872 1268.151,3150.88 1126.155,3400 		"/>
		<polygon style="fill:#FDFEFE;" points="1126.155,3400 1268.151,3150.88 1268.151,3150.872 968.819,3150.872 1110.815,3400 		"/>
		<polygon style="fill:#FDFEFE;" points="1709.48,3400 1567.483,3150.872 1567.483,3150.88 1425.487,3400 		"/>
		<polygon style="fill:#F7F8F8;" points="1425.487,3400 1567.483,3150.88 1567.483,3150.872 1268.151,3150.872 1410.147,3400 		"/>
		<polygon style="fill:#FFFFFF;" points="2008.811,3400 1866.815,3150.872 1866.815,3150.88 1724.819,3400 		"/>
		<polygon style="fill:#E7E7E7;" points="1724.819,3400 1866.815,3150.88 1866.815,3150.872 1567.483,3150.872 1709.48,3400 		"/>
		<polygon style="fill:#F7F8F8;" points="2308.143,3400 2166.147,3150.872 2166.147,3150.88 2024.151,3400 		"/>
		<polygon style="fill:#EAEAEA;" points="2024.151,3400 2166.147,3150.88 2166.147,3150.872 1866.815,3150.872 2008.811,3400 		"/>
		<polygon style="fill:#FDFEFE;" points="2607.475,3400 2465.48,3150.872 2465.48,3150.88 2323.483,3400 		"/>
		<polygon style="fill:#F7F7F7;" points="2323.483,3400 2465.48,3150.88 2465.48,3150.872 2166.147,3150.872 2308.143,3400 		"/>
		<polygon style="fill:#FDFEFE;" points="2906.807,3400 2764.811,3150.872 2764.811,3150.88 2622.815,3400 		"/>
		<polygon style="fill:#FFFFFF;" points="2622.815,3400 2764.811,3150.88 2764.811,3150.872 2465.48,3150.872 2607.475,3400 		"/>
		<polygon style="fill:#F7F8F8;" points="3206.135,3400 3064.139,3150.872 3064.139,3150.88 2922.147,3400 		"/>
		<polygon style="fill:#F7F8F8;" points="2922.147,3400 3064.139,3150.88 3064.139,3150.872 2764.811,3150.872 2906.807,3400 		"/>
		<polygon style="fill:#F7F7F7;" points="3505.467,3400 3363.471,3150.872 3363.471,3150.88 3221.475,3400 		"/>
		<polygon style="fill:#F7F8F8;" points="3221.475,3400 3363.471,3150.88 3363.471,3150.872 3064.139,3150.872 3206.135,3400 		"/>
		<polygon style="fill:#F7F8F8;" points="3804.8,3400 3662.803,3150.872 3662.803,3150.88 3520.807,3400 		"/>
		<polygon style="fill:#F7F8F8;" points="3520.807,3400 3662.803,3150.88 3662.803,3150.872 3363.471,3150.872 3505.467,3400 		"/>
		<polygon style="fill:#F7F7F7;" points="4104.131,3400 3962.135,3150.872 3962.135,3150.88 3820.139,3400 		"/>
		<polygon style="fill:#FDFEFE;" points="3820.139,3400 3962.135,3150.88 3962.135,3150.872 3662.803,3150.872 3804.8,3400 		"/>
		<polygon style="fill:#EAEAEA;" points="4403.463,3400 4261.467,3150.872 4261.467,3150.88 4119.471,3400 		"/>
		<polygon style="fill:#E7E7E7;" points="4119.471,3400 4261.467,3150.88 4261.467,3150.872 3962.135,3150.872 4104.131,3400 		"/>
		<polygon style="fill:#FDFEFE;" points="4702.795,3400 4560.8,3150.872 4560.8,3150.88 4418.803,3400 		"/>
		<polygon style="fill:#E7E7E7;" points="4418.803,3400 4560.8,3150.88 4560.8,3150.872 4261.467,3150.872 4403.463,3400 		"/>
		<polygon style="fill:#F7F8F8;" points="4800,3400 4800,3256.376 4718.135,3400 		"/>
		<polygon style="fill:#FDFEFE;" points="4718.135,3400 4800,3256.376 4800,3150.872 4560.8,3150.872 4702.795,3400 		"/>
	</g>
</g>
</svg>
