<?xml version="1.0" encoding="utf-8"?>
<!-- Generator: Adobe Illustrator 24.0.1, SVG Export Plug-In . SVG Version: 6.00 Build 0)  -->
<svg version="1.1" id="Layer_1" xmlns="http://www.w3.org/2000/svg" xmlns:xlink="http://www.w3.org/1999/xlink" x="0px" y="0px"
	 viewBox="0 0 1920 1920" style="enable-background:new 0 0 1920 1920;" xml:space="preserve">
<style type="text/css">
	.st0{fill:#4F46E5;}
</style>
<g>
	<path class="st0" d="M1626.17,610.29c-64.51,94.66-185.37,272.87-253.26,370.36c-1.55,2.23-2.39,4.88-2.39,7.6v317.14
		c0,35.72-28.95,64.67-64.67,64.67H899.01c274.25-334.54,638.56-935.4,732.35-1083.51c4.45-7.03-3.83-15.16-10.77-10.57
		c-146.25,96.71-739.05,474.02-1071.11,755.68V613.69c0-35.72,28.95-64.67,64.67-64.67h334.32c2.76,0,5.46-0.86,7.71-2.46
		c95.41-67.85,244.51-188.7,337.19-253.26c10.69-7.45,5.41-24.22-7.62-24.22H359.19c-49.51,0-89.65,40.14-89.65,89.65v937
		c0,195.66,158.61,354.27,354.27,354.27h937c49.51,0,89.65-40.14,89.65-89.65V617.79C1650.46,604.7,1633.54,599.47,1626.17,610.29z"
		/>
</g>
</svg>
