<?xml version="1.0" encoding="utf-8"?>
<!-- Generator: Adobe Illustrator 24.0.1, SVG Export Plug-In . SVG Version: 6.00 Build 0)  -->
<svg version="1.1" xmlns="http://www.w3.org/2000/svg" xmlns:xlink="http://www.w3.org/1999/xlink" x="0px" y="0px"
	 viewBox="0 0 2884 585" style="enable-background:new 0 0 2884 585;" xml:space="preserve">
<style type="text/css">
	.st0{fill:#4F46E5;}
</style>
<g id="Layer_1">
	<g>
		<path class="st0" d="M526.01,165.26c-23.87,35.03-68.6,100.97-93.72,137.05c-0.57,0.83-0.88,1.81-0.88,2.81v117.36
			c0,13.22-10.71,23.93-23.93,23.93H256.93c101.49-123.8,236.29-346.14,271-400.95c1.65-2.6-1.42-5.61-3.99-3.91
			c-54.12,35.79-273.48,175.41-396.36,279.64V166.52c0-13.22,10.71-23.93,23.93-23.93h123.71c1.02,0,2.02-0.32,2.85-0.91
			c35.31-25.11,90.48-69.83,124.78-93.72c3.96-2.76,2-8.96-2.82-8.96H57.17C38.85,39,24,53.85,24,72.17V418.9
			C24,491.31,82.69,550,155.1,550h346.73c18.32,0,33.17-14.85,33.17-33.17V168.04C535,163.19,528.74,161.26,526.01,165.26z"/>
	</g>
	<g>
		<path class="st0" d="M1131.05,56.39l0.53,234.32c0,22.17-1.05,85.49-31.66,146.18c-31.14,58.05-94.47,112.41-218.48,112.41
			c-59.63,0-161.49-38.52-189.46-96.05c-2.64-5.81-1.06-12.14,3.17-16.36l90.77-89.19c2.11-2.11,5.81-1.58,7.92,1.06
			c5.28,7.92,11.61,14.25,19,20.58c15.3,13.19,37.47,25.86,68.61,25.86c53.83,0,91.3-19,91.3-100.8V56.39
			c0-8.97,6.86-15.83,15.83-15.83h126.66C1124.19,40.56,1131.05,47.42,1131.05,56.39z"/>
		<path class="st0" d="M1336.87,548.24l-117.69,0.53c-11.61,0-19-10.55-14.78-21.11l169.41-464.41c2.11-5.28,8.97-10.03,14.78-10.03
			l147.77-2.11c6.33,0,13.19,5.28,15.3,11.08l157.27,465.47c3.69,11.08-3.69,21.11-15.3,21.11h-118.74
			c-6.33,0-13.19-5.28-15.3-11.08l-9.5-30.08c-2.11-5.81-8.97-11.08-15.3-11.08h-156.74c-5.8,0-12.67,4.75-14.78,10.55l-11.61,30.61
			C1349.54,543.49,1342.67,548.24,1336.87,548.24z M1446.11,274.87l-24.28,66.5c-3.69,11.08,3.69,21.11,15.3,21.11H1482
			c11.61,0,18.47-9.5,15.3-20.58l-21.11-66.5C1471.44,260.1,1451.39,260.1,1446.11,274.87z"/>
		<path class="st0" d="M2106.32,504.44c-20.05,24.8-57,42.75-87.08,42.75c-174.15,0-246.98-91.3-246.98-262.29
			c0-152.52,108.71-239.07,257.01-239.07c101.33,0,224.29,51.72,236.43,162.54c1.06,9.5-5.28,17.94-14.78,17.94h-116.1
			c-5.81,0-16.36-8.97-18.47-13.72c-12.14-30.61-60.16-45.91-88.13-45.91c-67.02,0-98.69,49.61-98.69,111.35
			c0,74.94,13.72,148.82,102.38,148.82c24.8,0,67.02-13.19,79.69-38.52c5.8-11.61,0-14.78-12.14-14.78h-63.33
			c-8.97,0-15.83-6.86-15.83-15.83l-1.05-75.47c0-8.44,7.39-15.83,15.83-15.83l220.07,0.53c8.97,0,15.83,6.86,15.83,15.83v249.62
			c0,8.97-6.86,15.83-15.83,15.83h-120.32c-8.44,0-15.3-6.33-15.83-14.78l-2.11-25.33C2116.34,503.91,2109.48,500.75,2106.32,504.44
			z"/>
		<path class="st0" d="M2393.93,531.88V66.42c0-8.97,6.86-15.83,15.83-15.83h231.68c146.18,0,209.51,77.05,209.51,177.32
			c0,57.52-20.58,120.32-77.05,143.02c-2.64,1.06-4.75,2.11-3.17,4.22c4.75,8.97,27.97,31.14,61.75,36.94
			c7.39,1.58,17.42,10.03,17.42,17.42v102.38c0,8.97-2.64,15.83-11.61,15.83c-138.27-1.58-184.71-29.03-232.21-107.13
			c-3.69-5.81-13.72-11.61-20.05-9.5l-11.08,3.17c-5.81,2.11-11.08,8.97-11.08,15.3v82.33c0,8.97-6.86,15.83-15.83,15.83h-138.27
			C2400.79,547.71,2393.93,540.85,2393.93,531.88z M2582.33,165.63c-8.97,0-16.89,6.86-16.89,15.83l0.53,101.33
			c0,9.5,4.75,15.83,14.25,15.3c45.39-3.69,105.55-24.8,105.55-73.36C2685.77,179.88,2649.89,167.21,2582.33,165.63z"/>
	</g>
</g>
<g id="Layer_2">
</g>
</svg>
