<?xml version="1.0" encoding="UTF-8" standalone="no"?><!DOCTYPE svg PUBLIC "-//W3C//DTD SVG 1.1//EN" "http://www.w3.org/Graphics/SVG/1.1/DTD/svg11.dtd"><svg width="100%" height="100%" viewBox="0 0 462 462" version="1.1" xmlns="http://www.w3.org/2000/svg" xmlns:xlink="http://www.w3.org/1999/xlink" xml:space="preserve" xmlns:serif="http://www.serif.com/" style="fill-rule:evenodd;clip-rule:evenodd;stroke-linejoin:round;stroke-miterlimit:2;"><rect id="Artboard1" x="0" y="0" width="461.802" height="461.802" style="fill:none;"/><path d="M63.905,153.653l0,152.898c0.004,6.744 0.718,13.365 2.078,19.807l64.964,-87.977l0,-84.717c0,-14.07 11.237,-25.468 25.09,-25.482l95.987,0.003l-238.913,323.515l318.535,-242.642l0.003,97.486c-0.007,14.077 -11.233,25.486 -25.086,25.486l-77.548,-0l-87.79,66.883c4.852,0.782 9.805,1.213 14.809,1.206l150.525,0c50.801,0 92.132,-41.973 92.132,-93.557l0,-152.891c0.004,-24.992 -9.58,-48.49 -26.981,-66.159c-17.411,-17.686 -40.551,-27.416 -65.161,-27.402l-150.515,-0.007c-50.801,0.007 -92.118,41.98 -92.129,93.55Z" style="fill:#fff;fill-rule:nonzero;"/></svg>