<?xml version="1.0" encoding="utf-8"?>
<!-- Generator: Adobe Illustrator 16.0.0, SVG Export Plug-In . SVG Version: 6.00 Build 0)  -->
<!DOCTYPE svg PUBLIC "-//W3C//DTD SVG 1.1//EN" "http://www.w3.org/Graphics/SVG/1.1/DTD/svg11.dtd">
<svg version="1.1" id="Layer_1" xmlns="http://www.w3.org/2000/svg" xmlns:xlink="http://www.w3.org/1999/xlink" x="0px" y="0px"
	 width="700px" height="133.444px" viewBox="0 0 700 133.444" enable-background="new 0 0 700 133.444" xml:space="preserve">
<g>
	<path fill="#FFFFFF" d="M187.636,40.743v43.622c0.001,1.924,0.208,3.813,0.602,5.651l18.824-25.1V40.746
		c0-4.014,3.256-7.266,7.27-7.27l27.813,0.001l-69.227,92.299l92.298-69.226l0.001,27.813c-0.002,4.016-3.255,7.271-7.269,7.271
		h-22.47l-25.438,19.082c1.406,0.223,2.841,0.346,4.291,0.344h43.616c14.72,0,26.696-11.975,26.696-26.692v-43.62
		c0.001-7.13-2.776-13.834-7.818-18.875c-5.045-5.046-11.75-7.822-18.881-7.818l-43.613-0.002
		C199.611,14.055,187.639,26.03,187.636,40.743z"/>
</g>
<path fill="#FFFFFF" d="M100.1,110.547H76.47l-7.007-19.786H31.818l-7.008,19.786H2l36.683-97.41h25.143l15.345,41.208L62.59,70.978
	L50.912,37.315L38.958,70.978h46.404L100.1,110.547z"/>
<path fill="#FFFFFF" d="M185.672,61.909c0,30.086-19.648,48.638-49.05,48.638h-35.171V55.381l21.708-21.778V90.07H135.8
	c14.975,0,27.203-8.655,27.203-28.164S150.775,33.603,135.8,33.603h-34.349V13.13h35.31
	C166.024,13.133,185.672,31.82,185.672,61.909z"/>
<path display="none" d="M364.534,94.667c-7.156,9.559-19.367,17.937-38.632,17.937c-28.028,0-50.559-20.196-50.559-50.559
	c0-30.367,23.083-50.972,50.285-50.972c17.633,0,29.297,6.845,36.502,15.345l-15.48,15.48c-3.662-5.075-10.121-9.668-21.018-9.668
	c-13.053,0-27.752,9.342-27.752,29.815c0,18.274,13.463,28.854,28.029,28.854c12.367,0,19.272-6.033,22.851-12.014L364.534,94.667z"
	/>
<path display="none" d="M460.278,110.543h-23.63l-7.007-19.786h-37.645l-7.008,19.786h-22.811l36.684-97.41h25.143l15.346,41.208
	l-16.582,16.633L411.09,37.312l-11.954,33.662h46.404L460.278,110.543z"/>
<path display="none" d="M529.617,81.759c0,15.252-12.779,30.775-35.997,30.775c-23.389,0-35.157-13.162-38.75-25.624l19.549-6.545
	c2.047,7.225,8.104,12.935,19.477,12.935c8.519,0,13.739-4.125,13.739-10.171c0-4.943-3.985-8.517-10.44-9.755l-13.328-2.473
	c-16.487-3.16-26.517-14.154-26.517-28.577C457.349,23.912,473.56,11,492.247,11c20.395,0,30.136,10.243,33.973,20.275L506.73,37.8
	c-2.074-3.811-6.366-7.565-14.622-7.565c-8.104,0-13.327,5.082-13.327,10.442c0,4.669,2.886,8.106,9.618,9.342l13.051,2.473
	C519.998,55.929,529.617,67.883,529.617,81.759z"/>
<path display="none" d="M531.015,13.064h81.75v20.747h-30.088v76.666h-21.709V55.585l21.709-21.778h-51.662V13.064z"/>
<path display="none" d="M688.727,81.759c0,15.252-12.779,30.775-35.996,30.775c-23.389,0-35.158-13.162-38.75-25.624l19.547-6.545
	c2.049,7.225,8.104,12.935,19.477,12.935c8.521,0,13.74-4.125,13.74-10.171c0-4.943-3.984-8.517-10.441-9.755l-13.326-2.473
	c-16.488-3.16-26.518-14.154-26.518-28.577C616.459,23.912,632.67,11,651.357,11c20.393,0,30.135,10.243,33.971,20.275L665.84,37.8
	c-2.074-3.811-6.367-7.565-14.621-7.565c-8.104,0-13.328,5.082-13.328,10.442c0,4.669,2.885,8.106,9.619,9.342l13.051,2.473
	C679.107,55.929,688.727,67.883,688.727,81.759z"/>
<path fill="#FFFFFF" d="M368.343,94.699c-9.691,9.543-24.122,17.905-43.351,17.905c-27.97,0-45.058-20.162-36.936-50.474
	c8.121-30.312,36.669-50.882,63.823-50.882c17.598,0,27.41,6.833,32.326,15.317l-19.587,15.456
	c-2.306-5.068-7.519-9.655-18.398-9.655c-13.026,0-30.194,9.326-35.67,29.762c-4.888,18.246,5.717,28.805,20.257,28.805
	c12.342,0,20.847-6.022,26.018-11.991L368.343,94.699z"/>
<path fill="#FFFFFF" d="M457.252,110.547h-23.584l-1.702-19.753h-37.569l-12.289,19.753h-22.767l62.669-97.241h25.095l4.29,41.139
	l-20.993,16.603l-2.654-33.602l-20.94,33.602h46.314L457.252,110.547z"/>
<path fill="#FFFFFF" d="M532.081,81.883c-4.08,15.229-20.986,30.721-44.163,30.721c-23.344,0-31.569-13.137-31.819-25.579
	l21.26-6.533c0.113,7.216,4.63,12.914,15.98,12.914c8.504,0,14.816-4.119,16.432-10.153c1.323-4.934-1.702-8.502-7.808-9.739
	l-12.643-2.469c-15.612-3.157-22.682-14.131-18.82-28.528c4.923-18.381,24.554-31.269,43.209-31.269
	c20.354,0,27.337,10.227,28.481,20.238l-21.197,6.515c-1.045-3.805-4.33-7.554-12.567-7.554c-8.089,0-14.661,5.074-16.096,10.423
	c-1.25,4.664,0.713,8.096,7.101,9.326l12.363,2.47C529.387,56.099,535.794,68.034,532.081,81.883z"/>
<path fill="#FFFFFF" d="M548.502,13.31h81.59l-5.551,20.712h-30.028l-20.508,76.532H552.34l14.682-54.797l27.491-21.742h-51.562
	L548.502,13.31z"/>
<path fill="#FFFFFF" d="M685.369,81.883c-4.08,15.229-20.986,30.721-44.163,30.721c-23.343,0-31.568-13.137-31.818-25.579
	l21.26-6.533c0.112,7.216,4.63,12.914,15.98,12.914c8.504,0,14.816-4.119,16.432-10.153c1.323-4.934-1.701-8.502-7.808-9.739
	l-12.643-2.469c-15.612-3.157-22.682-14.131-18.82-28.528c4.924-18.381,24.554-31.269,43.209-31.269
	c20.354,0,27.337,10.227,28.481,20.238l-21.197,6.515c-1.046-3.805-4.33-7.554-12.568-7.554c-8.089,0-14.661,5.074-16.096,10.423
	c-1.249,4.664,0.714,8.096,7.101,9.326l12.363,2.47C682.675,56.099,689.082,68.034,685.369,81.883z"/>
</svg>
