<?xml version="1.0" encoding="UTF-8" standalone="no"?><!DOCTYPE svg PUBLIC "-//W3C//DTD SVG 1.1//EN" "http://www.w3.org/Graphics/SVG/1.1/DTD/svg11.dtd"><svg width="100%" height="100%" viewBox="0 0 5000 5000" version="1.1" xmlns="http://www.w3.org/2000/svg" xmlns:xlink="http://www.w3.org/1999/xlink" xml:space="preserve" xmlns:serif="http://www.serif.com/" style="fill-rule:evenodd;clip-rule:evenodd;stroke-linejoin:round;stroke-miterlimit:2;"><g id="Layer-2" serif:id="Layer 2"><path d="M1006.55,1811.24l0,1347.79c0.033,59.438 6.413,117.817 18.604,174.604l581.613,-775.496l-0,-746.808c-0.017,-124.021 100.587,-224.496 224.621,-224.617l859.345,0.03l-2138.88,2851.75l2851.72,-2138.86l0.054,859.329c-0.088,124.071 -100.592,224.638 -224.6,224.638l-694.25,-0l-785.967,589.575c43.434,6.879 87.788,10.683 132.567,10.625l1347.59,-0c454.816,-0 824.854,-369.983 824.854,-824.713l-0,-1347.73c-0,-220.304 -85.779,-427.425 -241.554,-583.191c-155.876,-155.904 -363.042,-241.667 -583.367,-241.567l-1347.51,-0.058c-454.842,0.125 -824.746,370.1 -824.838,824.696" style="fill:#f1f0ff;fill-rule:nonzero;"/></g></svg>