<svg xmlns="http://www.w3.org/2000/svg" width="700" height="133.444" viewBox="0 0 700 133.444"><path fill="#c6c4e0" d="M187.636 40.743v43.622c.001 1.924.208 3.813.602 5.651l18.824-25.1v-24.17c0-4.014 3.256-7.266 7.27-7.27l27.813.001-69.227 92.299 92.298-69.226.001 27.813a7.271 7.271 0 01-7.269 7.271h-22.47l-25.438 19.082c1.406.223 2.841.346 4.291.344h43.616c14.72 0 26.696-11.975 26.696-26.692v-43.62c.001-7.13-2.776-13.834-7.818-18.875-5.045-5.046-11.75-7.822-18.881-7.818l-43.613-.002c-14.72.002-26.692 11.977-26.695 26.69zM100.1 110.547H76.47l-7.007-19.786H31.818l-7.008 19.786H2l36.683-97.41h25.143l15.345 41.208L62.59 70.978 50.912 37.315 38.958 70.978h46.404l14.738 39.569z"/><path fill="#c6c4e0" d="M185.672 61.909c0 30.086-19.648 48.638-49.05 48.638h-35.171V55.381l21.708-21.778V90.07H135.8c14.975 0 27.203-8.655 27.203-28.164S150.775 33.603 135.8 33.603h-34.349V13.13h35.31c29.263.003 48.911 18.69 48.911 48.779zM368.343 94.699c-9.691 9.543-24.122 17.905-43.351 17.905-27.97 0-45.058-20.162-36.936-50.474 8.121-30.312 36.669-50.882 63.823-50.882 17.598 0 27.41 6.833 32.326 15.317l-19.587 15.456c-2.306-5.068-7.519-9.655-18.398-9.655-13.026 0-30.194 9.326-35.67 29.762-4.888 18.246 5.717 28.805 20.257 28.805 12.342 0 20.847-6.022 26.018-11.991l11.518 15.757zM457.252 110.547h-23.584l-1.702-19.753h-37.569l-12.289 19.753h-22.767l62.669-97.241h25.095l4.29 41.139-20.993 16.603-2.654-33.602-20.94 33.602h46.314l4.13 39.499zM532.081 81.883c-4.08 15.229-20.986 30.721-44.163 30.721-23.344 0-31.569-13.137-31.819-25.579l21.26-6.533c.113 7.216 4.63 12.914 15.98 12.914 8.504 0 14.816-4.119 16.432-10.153 1.323-4.934-1.702-8.502-7.808-9.739l-12.643-2.469c-15.612-3.157-22.682-14.131-18.82-28.528 4.923-18.381 24.554-31.269 43.209-31.269 20.354 0 27.337 10.227 28.481 20.238l-21.197 6.515c-1.045-3.805-4.33-7.554-12.567-7.554-8.089 0-14.661 5.074-16.096 10.423-1.25 4.664.713 8.096 7.101 9.326l12.363 2.47c17.593 3.433 24 15.368 20.287 29.217zM548.502 13.31h81.59l-5.551 20.712h-30.028l-20.508 76.532H552.34l14.682-54.797 27.491-21.742h-51.562l5.551-20.705zM685.369 81.883c-4.08 15.229-20.986 30.721-44.163 30.721-23.343 0-31.568-13.137-31.818-25.579l21.26-6.533c.112 7.216 4.63 12.914 15.98 12.914 8.504 0 14.816-4.119 16.432-10.153 1.323-4.934-1.701-8.502-7.808-9.739l-12.643-2.469c-15.612-3.157-22.682-14.131-18.82-28.528 4.924-18.381 24.554-31.269 43.209-31.269 20.354 0 27.337 10.227 28.481 20.238l-21.197 6.515c-1.046-3.805-4.33-7.554-12.568-7.554-8.089 0-14.661 5.074-16.096 10.423-1.249 4.664.714 8.096 7.101 9.326l12.363 2.47c17.593 3.433 24 15.368 20.287 29.217z"/></svg>
